<mxfile host="app.diagrams.net" modified="2021-05-24T15:42:56.732Z" agent="5.0 (Windows NT 10.0; Win64; x64) AppleWebKit/537.36 (KHTML, like Gecko) Chrome/90.0.4430.212 Safari/537.36" etag="X2zchdsGETSLxR7zW4r1" version="14.7.0" type="github">
  <diagram id="u8wCuX3S5DNExcUj9gDV" name="Page-1">
    <mxGraphModel dx="1872" dy="446" grid="1" gridSize="10" guides="1" tooltips="1" connect="1" arrows="1" fold="1" page="1" pageScale="1" pageWidth="850" pageHeight="1100" math="0" shadow="0">
      <root>
        <mxCell id="0" />
        <mxCell id="1" parent="0" />
        <mxCell id="XfpoqTKBhhDDLbcFoHFr-42" style="edgeStyle=none;rounded=0;orthogonalLoop=1;jettySize=auto;html=1;" parent="1" edge="1">
          <mxGeometry relative="1" as="geometry">
            <mxPoint x="160" y="220" as="targetPoint" />
            <mxPoint y="220" as="sourcePoint" />
          </mxGeometry>
        </mxCell>
        <mxCell id="XfpoqTKBhhDDLbcFoHFr-1" value="" style="shape=image;verticalLabelPosition=bottom;verticalAlign=top;imageAspect=0;aspect=fixed;image=data:image/svg+xml,PHN2ZyB4bWxucz0iaHR0cDovL3d3dy53My5vcmcvMjAwMC9zdmciIHZpZXdCb3g9IjAgMCAxOCAxOCI+PGRlZnM+PGxpbmVhckdyYWRpZW50IGlkPSJhIiB4MT0iNy4zNyIgeTE9Ii41IiB4Mj0iNy4zNyIgeTI9IjEzLjIzIiBncmFkaWVudFVuaXRzPSJ1c2VyU3BhY2VPblVzZSI+PHN0b3Agb2Zmc2V0PSIwIiBzdG9wLWNvbG9yPSIjYjNiMmIzIi8+PHN0b3Agb2Zmc2V0PSIuMzgiIHN0b3AtY29sb3I9IiNhZmFlYWYiLz48c3RvcCBvZmZzZXQ9Ii43NiIgc3RvcC1jb2xvcj0iI2EyYTJhMiIvPjxzdG9wIG9mZnNldD0iMSIgc3RvcC1jb2xvcj0iIzk3OTc5NyIvPjwvbGluZWFyR3JhZGllbnQ+PGxpbmVhckdyYWRpZW50IGlkPSJiIiB4MT0iOC45NiIgeTE9IjEzLjI5IiB4Mj0iMTcuMzIiIHkyPSIxMy4yOSIgZ3JhZGllbnRVbml0cz0idXNlclNwYWNlT25Vc2UiPjxzdG9wIG9mZnNldD0iMCIgc3RvcC1jb2xvcj0iIzAwNWJhMSIvPjxzdG9wIG9mZnNldD0iLjA3IiBzdG9wLWNvbG9yPSIjMDA2MGE5Ii8+PHN0b3Agb2Zmc2V0PSIuMzYiIHN0b3AtY29sb3I9IiMwMDcxYzgiLz48c3RvcCBvZmZzZXQ9Ii41MiIgc3RvcC1jb2xvcj0iIzAwNzhkNCIvPjxzdG9wIG9mZnNldD0iLjY0IiBzdG9wLWNvbG9yPSIjMDA3NGNkIi8+PHN0b3Agb2Zmc2V0PSIuODIiIHN0b3AtY29sb3I9IiMwMDZhYmIiLz48c3RvcCBvZmZzZXQ9IjEiIHN0b3AtY29sb3I9IiMwMDViYTEiLz48L2xpbmVhckdyYWRpZW50PjwvZGVmcz48cGF0aCBmaWxsPSJ1cmwoI2EpIiBkPSJNNy4zNy41TC42OCA0LjM4di45NmgxLjIzdjcuMjhoMS4yMVY1LjM0aDguNXY3Ljg5aDEuMjFWNS4zNGgxLjIzdi0uOTZMNy4zNy41eiIvPjxwYXRoIGQ9Ik00LjMzIDEyLjYyaDIuNDNWMTAuMkg0LjMzem0zLjY0IDBoMi40M1YxMC4ySDh6TTQuMzMgOWgyLjQzVjYuNTVINC4zM3pNOCA2LjU1VjloMi40VjYuNTV6IiBmaWxsPSIjNTBlNmZmIi8+PHBhdGggZD0iTTEzLjE0IDEwLjQxYy0yLjMxIDAtNC4xNC0uNi00LjE0LTEuMzN2Ny4wOWMwIC43MyAxLjg0IDEuMzIgNC4xMiAxLjMzaC4wNmMyLjMxIDAgNC4xOC0uNiA0LjE4LTEuMzNWOS4wOGMtLjA0LjczLTEuOTEgMS4zMy00LjIyIDEuMzN6IiBmaWxsPSJ1cmwoI2IpIi8+PHBhdGggZD0iTTE3LjMyIDkuMDhjMCAuNzMtMS44NyAxLjMzLTQuMTggMS4zM1M5IDkuODEgOSA5LjA4czEuODctMS4zMyA0LjE4LTEuMzMgNC4xOC41OSA0LjE4IDEuMzMiIGZpbGw9IiNlOGU4ZTgiLz48cGF0aCBkPSJNMTYuMzUgOWMwIC40Ny0xLjQ0Ljg1LTMuMjEuODVzLTMuMi0uNDEtMy4yLS44NSAxLjQzLS44NSAzLjItLjg1IDMuMjEuMzggMy4yMS44NSIgZmlsbD0iIzUwZTZmZiIvPjxwYXRoIGQ9Ik0xMy4xNCA5LjE3YTguNTkgOC41OSAwIDAwLTIuNTQuMzIgOC41IDguNSAwIDAwMi41NC4zMyA4LjUgOC41IDAgMDAyLjU0LS4zMyA4LjU5IDguNTkgMCAwMC0yLjU0LS4zMnoiIGZpbGw9IiMzMmJlZGQiLz48L3N2Zz4=" parent="1" vertex="1">
          <mxGeometry x="-90" y="160" width="80" height="80" as="geometry" />
        </mxCell>
        <mxCell id="XfpoqTKBhhDDLbcFoHFr-46" style="edgeStyle=none;rounded=0;orthogonalLoop=1;jettySize=auto;html=1;entryX=1;entryY=0.75;entryDx=0;entryDy=0;" parent="1" edge="1">
          <mxGeometry relative="1" as="geometry">
            <mxPoint x="160" y="190" as="sourcePoint" />
            <mxPoint y="190" as="targetPoint" />
            <Array as="points">
              <mxPoint x="80" y="190.5" />
            </Array>
          </mxGeometry>
        </mxCell>
        <mxCell id="XfpoqTKBhhDDLbcFoHFr-48" style="edgeStyle=none;rounded=0;orthogonalLoop=1;jettySize=auto;html=1;" parent="1" edge="1">
          <mxGeometry relative="1" as="geometry">
            <mxPoint x="430" y="205" as="targetPoint" />
            <mxPoint x="250" y="205" as="sourcePoint" />
          </mxGeometry>
        </mxCell>
        <mxCell id="XfpoqTKBhhDDLbcFoHFr-2" value="" style="shape=image;verticalLabelPosition=bottom;verticalAlign=top;imageAspect=0;aspect=fixed;image=data:image/svg+xml,PHN2ZyB4bWxucz0iaHR0cDovL3d3dy53My5vcmcvMjAwMC9zdmciIGRhdGEtbmFtZT0iZmx1ZW50X2ljb25zIiB2aWV3Qm94PSIwIDAgMTggMTgiPjxkZWZzPjxsaW5lYXJHcmFkaWVudCBpZD0iYSIgeDE9IjguODgiIHkxPSIxMi4yMSIgeDI9IjguODgiIHkyPSIuMjEiIGdyYWRpZW50VW5pdHM9InVzZXJTcGFjZU9uVXNlIj48c3RvcCBvZmZzZXQ9IjAiIHN0b3AtY29sb3I9IiMwMDc4ZDQiLz48c3RvcCBvZmZzZXQ9Ii44MiIgc3RvcC1jb2xvcj0iIzVlYTBlZiIvPjwvbGluZWFyR3JhZGllbnQ+PGxpbmVhckdyYWRpZW50IGlkPSJiIiB4MT0iOC44OCIgeTE9IjE2Ljg0IiB4Mj0iOC44OCIgeTI9IjEyLjIxIiBncmFkaWVudFVuaXRzPSJ1c2VyU3BhY2VPblVzZSI+PHN0b3Agb2Zmc2V0PSIuMTUiIHN0b3AtY29sb3I9IiNjY2MiLz48c3RvcCBvZmZzZXQ9IjEiIHN0b3AtY29sb3I9IiM3MDcwNzAiLz48L2xpbmVhckdyYWRpZW50PjwvZGVmcz48cmVjdCB4PSItLjEyIiB5PSIuMjEiIHdpZHRoPSIxOCIgaGVpZ2h0PSIxMiIgcng9Ii42IiBmaWxsPSJ1cmwoI2EpIi8+PHBhdGggZmlsbD0iIzUwZTZmZiIgZD0iTTExLjg4IDQuNDZ2My40OWwtMyAxLjc2di0zLjVsMy0xLjc1eiIvPjxwYXRoIGZpbGw9IiNjM2YxZmYiIGQ9Ik0xMS44OCA0LjQ2bC0zIDEuNzYtMy0xLjc2IDMtMS43NSAzIDEuNzV6Ii8+PHBhdGggZmlsbD0iIzljZWJmZiIgZD0iTTguODggNi4yMnYzLjQ5bC0zLTEuNzZWNC40NmwzIDEuNzZ6Ii8+PHBhdGggZmlsbD0iI2MzZjFmZiIgZD0iTTUuODggNy45NWwzLTEuNzR2My41bC0zLTEuNzZ6Ii8+PHBhdGggZmlsbD0iIzljZWJmZiIgZD0iTTExLjg4IDcuOTVsLTMtMS43NHYzLjVsMy0xLjc2eiIvPjxwYXRoIGQ9Ik0xMi40OSAxNS44NGMtMS43OC0uMjgtMS44NS0xLjU2LTEuODUtMy42M0g3LjExYzAgMi4wNy0uMDYgMy4zNS0xLjg0IDMuNjNhMSAxIDAgMDAtLjg5IDFoOWExIDEgMCAwMC0uODktMXoiIGZpbGw9InVybCgjYikiLz48L3N2Zz4=" parent="1" vertex="1">
          <mxGeometry x="165" y="179.75" width="80" height="80" as="geometry" />
        </mxCell>
        <mxCell id="XfpoqTKBhhDDLbcFoHFr-6" value="" style="shape=image;verticalLabelPosition=bottom;verticalAlign=top;imageAspect=0;aspect=fixed;image=data:image/svg+xml,PHN2ZyB4bWxucz0iaHR0cDovL3d3dy53My5vcmcvMjAwMC9zdmciIHZpZXdCb3g9IjAgMCAxOCAxOCI+PGRlZnM+PGxpbmVhckdyYWRpZW50IGlkPSJhIiB4MT0iNS4wNSIgeTE9IjEwLjU1IiB4Mj0iNS4wNSIgeTI9IjEzLjQ4IiBncmFkaWVudFVuaXRzPSJ1c2VyU3BhY2VPblVzZSI+PHN0b3Agb2Zmc2V0PSIwIiBzdG9wLWNvbG9yPSIjNzZiYzJkIi8+PHN0b3Agb2Zmc2V0PSIxIiBzdG9wLWNvbG9yPSIjNWU5NjI0Ii8+PC9saW5lYXJHcmFkaWVudD48bGluZWFyR3JhZGllbnQgaWQ9ImIiIHgxPSIxMi44NCIgeTE9IjEwLjU3IiB4Mj0iMTIuODQiIHkyPSIxMy41IiBncmFkaWVudFVuaXRzPSJ1c2VyU3BhY2VPblVzZSI+PHN0b3Agb2Zmc2V0PSIwIiBzdG9wLWNvbG9yPSIjNzZiYzJkIi8+PHN0b3Agb2Zmc2V0PSIxIiBzdG9wLWNvbG9yPSIjNWU5NjI0Ii8+PC9saW5lYXJHcmFkaWVudD48L2RlZnM+PHBhdGggZD0iTTMuMTkgMTUuNmEyLjQ5IDIuNDkgMCAwMS0xLjUzLS4zOCAxLjcgMS43IDAgMDEtLjQ1LTEuMzZ2LTMuNTNjMC0uNTgtLjIzLS44OS0uNzEtLjg5di0uODhjLjQ4IDAgLjcxLS4zMS43MS0uOTJWNC4xN2ExLjc5IDEuNzkgMCAwMS40NS0xLjM5IDIuMjkgMi4yOSAwIDAxMS41My0uMzh2Ljg5Yy0uNTEgMC0uNzkuMjctLjc5Ljg1djMuNGMwIC43OC0uMjMgMS4yNi0uNzQgMS40NmExLjQyIDEuNDIgMCAwMS43NCAxLjQ2djMuMzdhMS4yNSAxLjI1IDAgMDAuMTcuNjguNzQuNzQgMCAwMC41OC4ydi44OXpNMTQuODEgMi40YTIuNDkgMi40OSAwIDAxMS41My4zOCAxLjcgMS43IDAgMDEuNDUgMS4zNnYzLjUzYzAgLjU4LjIzLjg5LjcxLjg5di44OGMtLjQ4IDAtLjcxLjMxLS43MS45MnYzLjQzYTEuOCAxLjggMCAwMS0uNDUgMS40IDIuMjggMi4yOCAwIDAxLTEuNTMuNDF2LS44OWMuNTEgMCAuNzktLjI3Ljc5LS44NXYtMy40YzAtLjc4LjIzLTEuMjYuNzQtMS40NmExLjQyIDEuNDIgMCAwMS0uNzQtMS40NlY0LjE3YTEuMjUgMS4yNSAwIDAwLS4xNy0uNjguNzQuNzQgMCAwMC0uNTgtLjJ6IiBmaWxsPSIjOTQ5NDk0Ii8+PHBhdGggZD0iTTkuNDEgOC4zNVY3LjA4aC0uOXYxLjI3YS4xOC4xOCAwIDAxLS4xOC4xOEg1YS4zNi4zNiAwIDAwLS4zNi4zNnYxLjY1aC45di0uOTFhLjE4LjE4IDAgMDEuMTctLjE4aDYuNTRhLjE4LjE4IDAgMDEuMTguMTh2LjkzaC44OVY4Ljg5YS4zNi4zNiAwIDAwLS4zNS0uMzZIOS41OWEuMTguMTggMCAwMS0uMTgtLjE4eiIgZmlsbD0iIzAwNWJhMSIvPjxwYXRoIGQ9Ik0xMC42MSAzLjIxSDcuMjVhLjM4LjM4IDAgMDAtLjM4LjM3djMuMzZhLjM3LjM3IDAgMDAuMzguMzdoMy4zNmEuMzcuMzcgMCAwMC4zOS0uMzdWMy41OGEuMzguMzggMCAwMC0uMzktLjM3em0tLjMyIDMuMTdhLjI1LjI1IDAgMDEtLjI1LjI0SDcuODFhLjI1LjI1IDAgMDEtLjI1LS4yNFY0LjE1YS4yNS4yNSAwIDAxLjI1LS4yNUgxMGEuMjUuMjUgMCAwMS4yNS4yNXoiIGZpbGw9IiMwMDc4ZDQiLz48cmVjdCB4PSIzLjU4IiB5PSIxMC41NSIgd2lkdGg9IjIuOTQiIGhlaWdodD0iMi45NCIgcng9Ii4yNyIgZmlsbD0idXJsKCNhKSIvPjxyZWN0IHg9IjExLjM4IiB5PSIxMC41NyIgd2lkdGg9IjIuOTQiIGhlaWdodD0iMi45NCIgcng9Ii4yNyIgZmlsbD0idXJsKCNiKSIvPjwvc3ZnPg==" parent="1" vertex="1">
          <mxGeometry x="450" y="305" width="90" height="90" as="geometry" />
        </mxCell>
        <mxCell id="XfpoqTKBhhDDLbcFoHFr-52" style="edgeStyle=none;rounded=0;orthogonalLoop=1;jettySize=auto;html=1;" parent="1" edge="1">
          <mxGeometry relative="1" as="geometry">
            <mxPoint x="640" y="200" as="targetPoint" />
            <mxPoint x="530" y="200" as="sourcePoint" />
          </mxGeometry>
        </mxCell>
        <mxCell id="XfpoqTKBhhDDLbcFoHFr-34" value="" style="shape=image;verticalLabelPosition=bottom;verticalAlign=top;imageAspect=0;aspect=fixed;image=data:image/svg+xml,PHN2ZyB4bWxucz0iaHR0cDovL3d3dy53My5vcmcvMjAwMC9zdmciIHZpZXdCb3g9IjAgMCAxOCAxOCI+PGRlZnM+PGxpbmVhckdyYWRpZW50IGlkPSJhIiB4MT0iOS4yNCIgeTE9Ii45NiIgeDI9IjguODUiIHkyPSIxNi41MiIgZ3JhZGllbnRVbml0cz0idXNlclNwYWNlT25Vc2UiPjxzdG9wIG9mZnNldD0iMCIgc3RvcC1jb2xvcj0iIzMyZDRmNSIvPjxzdG9wIG9mZnNldD0iLjIzIiBzdG9wLWNvbG9yPSIjMzFkMGYxIi8+PHN0b3Agb2Zmc2V0PSIuNDYiIHN0b3AtY29sb3I9IiMyY2MzZTYiLz48c3RvcCBvZmZzZXQ9Ii43IiBzdG9wLWNvbG9yPSIjMjVhZmQ0Ii8+PHN0b3Agb2Zmc2V0PSIuOTQiIHN0b3AtY29sb3I9IiMxYzkyYmEiLz48c3RvcCBvZmZzZXQ9IjEiIHN0b3AtY29sb3I9IiMxOThhYjMiLz48L2xpbmVhckdyYWRpZW50PjwvZGVmcz48cGF0aCBkPSJNMTcuMSAzLjZIOS42OWEuMzQuMzQgMCAwMS0uMjItLjA3TDcuMzUgMi4xMmEuNDMuNDMgMCAwMC0uMjItLjA2SC45YS40LjQgMCAwMC0uNC4zOXYxMy4xYS40LjQgMCAwMC40LjM5aDE2LjJhLjQuNCAwIDAwLjQtLjM5VjRhLjQuNCAwIDAwLS40LS40eiIgZmlsbD0iIzAwNWJhMSIvPjxyZWN0IHg9IjIuMDUiIHk9IjIuODIiIHdpZHRoPSIzLjg2IiBoZWlnaHQ9Ii43NyIgcng9Ii4xNiIgZmlsbD0iI2ZmZiIvPjxyZWN0IHg9IjIuMDUiIHk9IjIuODIiIHdpZHRoPSIuNzciIGhlaWdodD0iLjc3IiByeD0iLjExIiBmaWxsPSIjMWFjM2YyIi8+PHBhdGggZD0iTTE3LjEgMy41OEg5YS4zNi4zNiAwIDAwLS4yOC4xMkw3LjM3IDVhLjQzLjQzIDAgMDEtLjI4LjExSC45YS40LjQgMCAwMC0uNC40djEwYS40LjQgMCAwMC40LjM5aDE2LjJhLjQuNCAwIDAwLjQtLjM5VjRhLjQuNCAwIDAwLS40LS40MnoiIGZpbGw9InVybCgjYSkiLz48cGF0aCBkPSJNMTAuMTggNS43YS4xNS4xNSAwIDAwLS4wOCAwcy0uMDkgMC0uMTMuMDdsLTMuMTYgNC41OWEuMTYuMTYgMCAwMDAgLjE2LjE5LjE5IDAgMDAuMTUuMWgxLjg3TDggMTMuNGEuMTMuMTMgMCAwMC4wNy4xOC4xLjEgMCAwMC4wNyAwYy4wNiAwIC4wOSAwIC4xMy0uMDdsMy4yNi00LjY2di0uMWEuMTcuMTcgMCAwMC0uMTctLjE2aC0ybC44MS0yLjczYS4xMy4xMyAwIDAwLjAxLS4xNnoiIGZpbGw9IiNmZmYiLz48L3N2Zz4=" parent="1" vertex="1">
          <mxGeometry x="440" y="160" width="80" height="80" as="geometry" />
        </mxCell>
        <mxCell id="XfpoqTKBhhDDLbcFoHFr-35" value="" style="shape=image;verticalLabelPosition=bottom;verticalAlign=top;imageAspect=0;aspect=fixed;image=data:image/svg+xml,PHN2ZyB4bWxucz0iaHR0cDovL3d3dy53My5vcmcvMjAwMC9zdmciIHZpZXdCb3g9IjAgMCAxOCAxOCI+PGRlZnM+PGxpbmVhckdyYWRpZW50IGlkPSJiIiB4MT0iOSIgeTE9IjkuMDUiIHgyPSI5IiB5Mj0iMTQuNjUiIGdyYWRpZW50VW5pdHM9InVzZXJTcGFjZU9uVXNlIj48c3RvcCBvZmZzZXQ9IjAiIHN0b3AtY29sb3I9IiMwMDViYTEiLz48c3RvcCBvZmZzZXQ9Ii4yNiIgc3RvcC1jb2xvcj0iIzAwNTg5ZCIvPjxzdG9wIG9mZnNldD0iLjUzIiBzdG9wLWNvbG9yPSIjMDA0ZjkwIi8+PHN0b3Agb2Zmc2V0PSIuOCIgc3RvcC1jb2xvcj0iIzAwM2Y3YyIvPjxzdG9wIG9mZnNldD0iMSIgc3RvcC1jb2xvcj0iIzAwMzA2NyIvPjwvbGluZWFyR3JhZGllbnQ+PGNsaXBQYXRoIGlkPSJhIj48cmVjdCB4PSIuNTYiIHk9IjMuNDMiIHdpZHRoPSIxNi44OCIgaGVpZ2h0PSIxMS4xMyIgcng9Ii41NiIgZmlsbD0ibm9uZSIvPjwvY2xpcFBhdGg+PC9kZWZzPjxnIGNsaXAtcGF0aD0idXJsKCNhKSI+PHBhdGggZD0iTS41NiAzLjQ0djExLjIxTDkgOS4wNXoiIGZpbGw9IiMzMmJlZGQiLz48cGF0aCBkPSJNMTcuNDQgMy40NEw5IDkuMDVsOC40NSA1LjU5Yy0uMDItLjIyLS4wMS0xMS40LS4wMS0xMS4yeiIgZmlsbD0iIzE5OGFiMyIvPjxwYXRoIGZpbGw9InVybCgjYikiIGQ9Ik04Ljk3IDkuMDVMLjU2IDE0LjY0aDE2Ljg3di0uMDFMOC45NyA5LjA1eiIvPjxwYXRoIGQ9Ik0uNTYgMy40NGgxNi44OEw5LjA5IDEwYS4yOS4yOSAwIDAxLS4zNSAweiIgZmlsbD0iIzUwZTZmZiIvPjwvZz48L3N2Zz4=" parent="1" vertex="1">
          <mxGeometry x="645" y="410" width="70" height="70" as="geometry" />
        </mxCell>
        <mxCell id="XfpoqTKBhhDDLbcFoHFr-36" value="" style="endArrow=none;dashed=1;html=1;dashPattern=1 3;strokeWidth=2;" parent="1" edge="1">
          <mxGeometry width="50" height="50" relative="1" as="geometry">
            <mxPoint x="560" y="490" as="sourcePoint" />
            <mxPoint x="560" y="130" as="targetPoint" />
          </mxGeometry>
        </mxCell>
        <mxCell id="XfpoqTKBhhDDLbcFoHFr-37" value="" style="endArrow=none;dashed=1;html=1;dashPattern=1 3;strokeWidth=2;" parent="1" edge="1">
          <mxGeometry width="50" height="50" relative="1" as="geometry">
            <mxPoint x="850" y="490" as="sourcePoint" />
            <mxPoint x="850" y="130" as="targetPoint" />
          </mxGeometry>
        </mxCell>
        <mxCell id="XfpoqTKBhhDDLbcFoHFr-38" value="" style="endArrow=none;dashed=1;html=1;dashPattern=1 3;strokeWidth=2;" parent="1" edge="1">
          <mxGeometry width="50" height="50" relative="1" as="geometry">
            <mxPoint x="560" y="130" as="sourcePoint" />
            <mxPoint x="850" y="130" as="targetPoint" />
          </mxGeometry>
        </mxCell>
        <mxCell id="XfpoqTKBhhDDLbcFoHFr-39" value="" style="endArrow=none;dashed=1;html=1;dashPattern=1 3;strokeWidth=2;" parent="1" edge="1">
          <mxGeometry width="50" height="50" relative="1" as="geometry">
            <mxPoint x="560" y="490" as="sourcePoint" />
            <mxPoint x="850" y="490" as="targetPoint" />
          </mxGeometry>
        </mxCell>
        <mxCell id="XfpoqTKBhhDDLbcFoHFr-43" value="SQL DWH" style="text;html=1;align=center;verticalAlign=middle;resizable=0;points=[];autosize=1;strokeColor=none;" parent="1" vertex="1">
          <mxGeometry x="-85" y="250" width="70" height="20" as="geometry" />
        </mxCell>
        <mxCell id="XfpoqTKBhhDDLbcFoHFr-44" value="Output is stored in VM" style="text;html=1;align=center;verticalAlign=middle;resizable=0;points=[];autosize=1;strokeColor=none;" parent="1" vertex="1">
          <mxGeometry x="10" y="230" width="130" height="20" as="geometry" />
        </mxCell>
        <mxCell id="XfpoqTKBhhDDLbcFoHFr-45" value="VM" style="text;html=1;align=center;verticalAlign=middle;resizable=0;points=[];autosize=1;strokeColor=none;" parent="1" vertex="1">
          <mxGeometry x="190" y="259.75" width="30" height="20" as="geometry" />
        </mxCell>
        <mxCell id="XfpoqTKBhhDDLbcFoHFr-47" value="Sqlcmd" style="text;html=1;align=center;verticalAlign=middle;resizable=0;points=[];autosize=1;strokeColor=none;" parent="1" vertex="1">
          <mxGeometry x="45" y="160" width="60" height="20" as="geometry" />
        </mxCell>
        <mxCell id="XfpoqTKBhhDDLbcFoHFr-49" value="Output Stored to Blob Storage" style="text;html=1;align=center;verticalAlign=middle;resizable=0;points=[];autosize=1;strokeColor=none;" parent="1" vertex="1">
          <mxGeometry x="245" y="170" width="180" height="20" as="geometry" />
        </mxCell>
        <mxCell id="XfpoqTKBhhDDLbcFoHFr-50" value="Logic Apps" style="text;html=1;align=center;verticalAlign=middle;resizable=0;points=[];autosize=1;strokeColor=none;" parent="1" vertex="1">
          <mxGeometry x="460" y="395" width="70" height="20" as="geometry" />
        </mxCell>
        <mxCell id="XfpoqTKBhhDDLbcFoHFr-51" value="Send Email &lt;br&gt;with Attachment" style="text;html=1;align=center;verticalAlign=middle;resizable=0;points=[];autosize=1;strokeColor=none;" parent="1" vertex="1">
          <mxGeometry x="725" y="430" width="100" height="30" as="geometry" />
        </mxCell>
        <mxCell id="XfpoqTKBhhDDLbcFoHFr-59" style="edgeStyle=none;rounded=0;orthogonalLoop=1;jettySize=auto;html=1;" parent="1" source="XfpoqTKBhhDDLbcFoHFr-54" edge="1">
          <mxGeometry relative="1" as="geometry">
            <mxPoint x="680" y="280" as="targetPoint" />
          </mxGeometry>
        </mxCell>
        <mxCell id="XfpoqTKBhhDDLbcFoHFr-54" value="" style="shape=image;verticalLabelPosition=bottom;verticalAlign=top;imageAspect=0;aspect=fixed;image=data:image/svg+xml,PHN2ZyB4bWxucz0iaHR0cDovL3d3dy53My5vcmcvMjAwMC9zdmciIHZpZXdCb3g9IjAgMCAxOCAxOCI+PGRlZnM+PGxpbmVhckdyYWRpZW50IGlkPSJhIiB4MT0iLTE3NS45OTMiIHkxPSItMzQzLjcyMyIgeDI9Ii0xNzUuOTkzIiB5Mj0iLTM1OS4yMzIiIGdyYWRpZW50VHJhbnNmb3JtPSJtYXRyaXgoMS4xNTYgMCAwIDEuMDI5IDIxMi41NzMgMzcwLjU0OCkiIGdyYWRpZW50VW5pdHM9InVzZXJTcGFjZU9uVXNlIj48c3RvcCBvZmZzZXQ9IjAiIHN0b3AtY29sb3I9IiNmZWExMWIiLz48c3RvcCBvZmZzZXQ9Ii4yODQiIHN0b3AtY29sb3I9IiNmZWE1MWEiLz48c3RvcCBvZmZzZXQ9Ii41NDciIHN0b3AtY29sb3I9IiNmZWIwMTgiLz48c3RvcCBvZmZzZXQ9Ii44IiBzdG9wLWNvbG9yPSIjZmZjMzE0Ii8+PHN0b3Agb2Zmc2V0PSIxIiBzdG9wLWNvbG9yPSIjZmZkNzBmIi8+PC9saW5lYXJHcmFkaWVudD48L2RlZnM+PHBhdGggZD0iTTUuNTQgMTMuMTA1bC0uNTg2LjU4OGEuMjY3LjI2NyAwIDAxLS4zNzcgMEwuMjIzIDkuMzUzYS41MzMuNTMzIDAgMDEwLS43NTVsLjU4OC0uNTkgNC43MzIgNC43MThhLjI2Ny4yNjcgMCAwMTAgLjM3OHoiIGZpbGw9IiM1MGU2ZmYiLz48cGF0aCBkPSJNNC44NjMgNC4zMDVsLjU5LjU4OGEuMjY3LjI2NyAwIDAxMCAuMzc4TC44MDYgOS45MzJsLS41OS0uNTg5YS41MzMuNTMzIDAgMDEtLjAwMS0uNzU0bDQuMjczLTQuMjg1YS4yNjcuMjY3IDAgMDEuMzc2IDB6IiBmaWxsPSIjMTQ5MGRmIi8+PHBhdGggZD0iTTE3LjE5IDguMDEybC41ODguNTlhLjUzMy41MzMgMCAwMS0uMDAxLjc1NGwtNC4zNTQgNC4zNGEuMjY3LjI2NyAwIDAxLS4zNzcgMGwtLjU4Ni0uNTg3YS4yNjcuMjY3IDAgMDEwLS4zNzdsNC43MzItNC43MTh6IiBmaWxsPSIjNTBlNmZmIi8+PHBhdGggZD0iTTE3Ljc4MiA5LjM0bC0uNTkuNTg5LTQuNjQ4LTQuNjYyYS4yNjcuMjY3IDAgMDEwLS4zNzdsLjU5LS41ODhhLjI2Ny4yNjcgMCAwMS4zNzggMGw0LjI3MyA0LjI4NmEuNTMzLjUzMyAwIDAxMCAuNzUzeiIgZmlsbD0iIzE0OTBkZiIvPjxwYXRoIGQ9Ik04LjQ1OSA5LjlINC44N2EuMTkzLjE5MyAwIDAxLS4yLS4xODEuMTY2LjE2NiAwIDAxLjAxOC0uMDc1TDguOTkxIDEuMTNhLjIwNi4yMDYgMCAwMS4xODYtLjEwNmg0LjI0NWEuMTkzLjE5MyAwIDAxLjIuMTgxLjE2NS4xNjUgMCAwMS0uMDM1LjFMOC41MzQgNy45NjZoNC45MjhhLjE5My4xOTMgMCAwMS4yLjE4MS4xNzYuMTc2IDAgMDEtLjA1Mi4xMjJsLTguMTg5IDguNTE5Yy0uMDc3LjA0Ni0uNjI0LjUtLjM1Ni0uMTg5eiIgZmlsbD0idXJsKCNhKSIvPjwvc3ZnPg==" parent="1" vertex="1">
          <mxGeometry x="650" y="170" width="60" height="60" as="geometry" />
        </mxCell>
        <mxCell id="XfpoqTKBhhDDLbcFoHFr-57" value="When a blob is &lt;br&gt;added/modified&amp;nbsp;&amp;nbsp;" style="text;html=1;align=center;verticalAlign=middle;resizable=0;points=[];autosize=1;strokeColor=none;" parent="1" vertex="1">
          <mxGeometry x="725" y="179.75" width="100" height="30" as="geometry" />
        </mxCell>
        <mxCell id="XfpoqTKBhhDDLbcFoHFr-62" style="edgeStyle=none;rounded=0;orthogonalLoop=1;jettySize=auto;html=1;entryX=0.5;entryY=0;entryDx=0;entryDy=0;" parent="1" target="XfpoqTKBhhDDLbcFoHFr-35" edge="1">
          <mxGeometry relative="1" as="geometry">
            <mxPoint x="680" y="350" as="sourcePoint" />
          </mxGeometry>
        </mxCell>
        <mxCell id="XfpoqTKBhhDDLbcFoHFr-60" value="" style="shape=image;verticalLabelPosition=bottom;verticalAlign=top;imageAspect=0;aspect=fixed;image=data:image/svg+xml,PHN2ZyB4bWxucz0iaHR0cDovL3d3dy53My5vcmcvMjAwMC9zdmciIHZpZXdCb3g9IjAgMCAxOCAxOCI+PGRlZnM+PGxpbmVhckdyYWRpZW50IGlkPSJhIiB4MT0iMTEuMjQ2IiB5MT0iMTgiIHgyPSIxMS4yNDYiIHkyPSIzLjI4MSIgZ3JhZGllbnRVbml0cz0idXNlclNwYWNlT25Vc2UiPjxzdG9wIG9mZnNldD0iMCIgc3RvcC1jb2xvcj0iIzAwNzhkNCIvPjxzdG9wIG9mZnNldD0iLjgxNyIgc3RvcC1jb2xvcj0iIzVlYTBlZiIvPjwvbGluZWFyR3JhZGllbnQ+PC9kZWZzPjxwYXRoIGZpbGw9IiM1ZWEwZWYiIGQ9Ik0xLjA3OC4zMzRoMTAuMTF2MTEuNjg1SDEuMDc4eiIvPjxwYXRoIGQ9Ik0xMS4xODggMTIuMzUzSDEuMDc4YS4zMzQuMzM0IDAgMDEtLjMzNC0uMzM0Vi4zMzRBLjMzMy4zMzMgMCAwMTEuMDc4IDBoMTAuMTFhLjMzMy4zMzMgMCAwMS4zMzMuMzM0djExLjY4NWEuMzM0LjMzNCAwIDAxLS4zMzMuMzM0em0tOS43NzctLjY2OGg5LjQ0M1YuNjY4SDEuNDExeiIgZmlsbD0iIzAwNzhkNCIvPjxwYXRoIGZpbGw9IiM4M2I5ZjkiIGQ9Ik0zLjAxIDEuOTE4aDEwLjExdjExLjY4NUgzLjAxeiIvPjxwYXRoIGQ9Ik0xMy4xMiAxMy45MzdIMy4wMWEuMzM1LjMzNSAwIDAxLS4zMzQtLjMzNFYxLjkxOGEuMzM1LjMzNSAwIDAxLjMzNC0uMzM0aDEwLjExYS4zMzQuMzM0IDAgMDEuMzM0LjMzNFYxMy42YS4zMzQuMzM0IDAgMDEtLjMzNC4zMzd6bS05Ljc3Ni0uNjY4aDkuNDQzVjIuMjUySDMuMzQ0eiIgZmlsbD0iIzAwNzhkNCIvPjxwYXRoIGQ9Ik0xMi4wODIgMy4zOUg1LjgxOGEuNS41IDAgMDAtLjQ5NS41VjE3LjRhLjUuNSAwIDAwLjQ5NS41aDEwLjg1NmEuNS41IDAgMDAuNDk0LS41VjguNDU0YS41LjUgMCAwMC0uNDk0LS41aC0zLjZhLjUuNSAwIDAxLS40OTUtLjQ5NVYzLjg4NmEuNS41IDAgMDAtLjQ5Ny0uNDk2eiIgZmlsbD0iI2ZmZiIvPjxwYXRoIGQ9Ik0xMS44NTMgNC4wMjN2My4zOTNBMS4yNDYgMS4yNDYgMCAwMDEzLjEgOC42NjFoMy40MTh2OC42SDUuOTc3VjQuMDIzaDUuODc2bS4yNC0uNzQySDUuNzM3YS41LjUgMCAwMC0uNS41VjE3LjVhLjUuNSAwIDAwLjUuNWgxMS4wMTdhLjUuNSAwIDAwLjUtLjVWOC40MjFhLjUuNSAwIDAwLS41LS41SDEzLjFhLjUuNSAwIDAxLS41LS41VjMuNzgzYS41LjUgMCAwMC0uNS0uNXoiIGZpbGw9InVybCgjYSkiLz48cGF0aCBkPSJNMTcuMDY0IDguMDE5TDEyLjQyMiAzLjM5djMuNzcyYS44NTIuODUyIDAgMDAuODQ2Ljg1N3oiIGZpbGw9IiMwMDc4ZDQiLz48cmVjdCB4PSI3LjE1NyIgeT0iOS45ODIiIHdpZHRoPSI4LjE3NyIgaGVpZ2h0PSIxLjA5NyIgcng9Ii40OTMiIGZpbGw9IiM1ZWEwZWYiLz48cmVjdCB4PSI3LjE1NyIgeT0iMTEuOTQ4IiB3aWR0aD0iOC4xNzciIGhlaWdodD0iMS4wOTciIHJ4PSIuNDkzIiBmaWxsPSIjNWVhMGVmIi8+PHJlY3QgeD0iNy4xNTciIHk9IjEzLjkxMyIgd2lkdGg9IjUuMTU0IiBoZWlnaHQ9IjEuMDk3IiByeD0iLjQ5MyIgZmlsbD0iIzVlYTBlZiIvPjwvc3ZnPg==" parent="1" vertex="1">
          <mxGeometry x="655" y="290" width="50" height="50" as="geometry" />
        </mxCell>
        <mxCell id="XfpoqTKBhhDDLbcFoHFr-63" value="Get the latest blob" style="text;html=1;align=center;verticalAlign=middle;resizable=0;points=[];autosize=1;strokeColor=none;" parent="1" vertex="1">
          <mxGeometry x="720" y="305" width="110" height="20" as="geometry" />
        </mxCell>
        <mxCell id="uXaihpEte1swMfFmBt_H-1" value="&lt;font style=&quot;font-size: 36px&quot;&gt;Architecture for XML Automation&lt;/font&gt;" style="text;html=1;align=center;verticalAlign=middle;resizable=0;points=[];autosize=1;strokeColor=none;" vertex="1" parent="1">
          <mxGeometry x="30" y="20" width="530" height="30" as="geometry" />
        </mxCell>
      </root>
    </mxGraphModel>
  </diagram>
</mxfile>
